<mxfile host="app.diagrams.net" modified="2023-10-11T14:45:41.885Z" agent="Mozilla/5.0 (Windows NT 10.0; Win64; x64) AppleWebKit/537.36 (KHTML, like Gecko) Chrome/117.0.0.0 Safari/537.36" version="22.0.4" etag="rEpl9-PJn93rV_tYg2W3" type="github">
  <diagram name="PÃ¡gina-1" id="OS-vShhvKpMB2Uq_5CtL">
    <mxGraphModel>
      <root>
        <mxCell id="0" />
        <mxCell id="1" parent="0" />
      </root>
    </mxGraphModel>
  </diagram>
</mxfile>
